<?xml version="1.0" encoding="UTF-8"?>
<!DOCTYPE svg PUBLIC "-//W3C//DTD SVG 1.1//EN" "http://www.w3.org/Graphics/SVG/1.1/DTD/svg11.dtd">
<!-- Creator: CorelDRAW 2017 -->
<svg xmlns="http://www.w3.org/2000/svg" xml:space="preserve" width="33.8667mm" height="33.8667mm" version="1.1" style="shape-rendering:geometricPrecision; text-rendering:geometricPrecision; image-rendering:optimizeQuality; fill-rule:evenodd; clip-rule:evenodd"
viewBox="0 0 3387 3387"
 xmlns:xlink="http://www.w3.org/1999/xlink">
 <defs>
  <style type="text/css">
   <![CDATA[
    .str0 {stroke:black;stroke-width:79.3702}
    .fil0 {fill:none}
    .fil1 {fill:black;fill-rule:nonzero}
   ]]>
  </style>
 </defs>
 <g id="Слой_x0020_1">
  <metadata id="CorelCorpID_0Corel-Layer"/>
  <g id="_1007638784">
   <rect class="fil0 str0" x="40" y="40" width="3307" height="3307" rx="318" ry="318"/>
   <path class="fil1" d="M1496 1949c71,-71 106,-156 106,-257 0,-100 -36,-185 -106,-257 -71,-71 -157,-106 -257,-106 -100,0 -186,36 -257,106 -71,71 -106,157 -106,257 0,100 35,186 106,257 71,71 156,106 257,106 100,0 185,-35 257,-106zm1195 469c0,-49 -18,-91 -54,-127 -36,-36 -78,-54 -127,-54 -49,0 -92,18 -127,54 -36,36 -54,78 -54,127 0,50 18,93 53,128 36,36 78,53 128,53 50,0 93,-18 128,-53 36,-35 53,-78 53,-128zm0 -1451c0,-49 -18,-92 -54,-127 -36,-36 -78,-54 -127,-54 -49,0 -92,18 -127,54 -36,36 -54,78 -54,127 0,50 18,93 53,128 36,36 78,53 128,53 50,0 93,-17 128,-53 36,-36 53,-78 53,-128zm-544 596l0 262c0,9 -3,19 -10,28 -6,9 -14,14 -22,15l-220 34c-11,33 -26,69 -45,108 32,45 75,100 127,163 7,11 10,20 10,28 0,11 -3,20 -10,27 -22,28 -61,71 -117,127 -56,56 -94,85 -111,85 -11,0 -20,-3 -30,-10l-163 -127c-35,18 -71,33 -109,44 -11,102 -21,175 -33,220 -7,22 -21,34 -43,34l-263 0c-11,0 -20,-3 -28,-11 -9,-7 -14,-15 -14,-25l-33 -217c-32,-9 -68,-24 -106,-44l-167 126c-7,7 -16,10 -28,10 -11,0 -20,-4 -30,-11 -136,-126 -204,-202 -204,-227 0,-8 3,-17 10,-27 9,-14 29,-39 58,-75 29,-37 52,-66 67,-86 -22,-41 -39,-80 -50,-116l-215 -34c-9,-1 -17,-6 -24,-14 -6,-8 -10,-17 -10,-28l0 -262c0,-9 3,-19 10,-28 7,-9 14,-14 23,-15l220 -34c11,-33 25,-69 45,-108 -32,-45 -75,-99 -127,-163 -7,-10 -10,-20 -10,-28 0,-11 3,-21 10,-28 21,-28 59,-70 116,-126 57,-56 94,-83 112,-83 10,0 20,3 30,10l163 127c32,-17 69,-32 109,-45 11,-102 21,-175 33,-218 7,-23 21,-34 43,-34l263 0c11,0 20,4 28,11 8,7 13,16 14,25l33 217c32,10 67,24 106,44l167 -126c8,-7 17,-10 28,-10 10,0 20,4 30,11 136,126 204,202 204,227 0,8 -3,17 -10,27 -11,15 -31,41 -60,77 -28,36 -50,64 -64,85 22,46 38,84 48,116l215 33c10,2 18,7 24,15 7,8 10,17 10,28zm907 756l0 199c0,15 -71,30 -211,44 -11,25 -26,50 -43,74 48,107 72,172 72,196 0,4 -2,7 -6,10 -116,67 -174,101 -176,101 -7,0 -29,-22 -65,-66 -36,-44 -60,-77 -74,-97 -19,2 -33,3 -42,3 -9,0 -24,-1 -43,-3 -13,20 -38,52 -74,97 -36,44 -58,66 -65,66 -2,0 -61,-33 -176,-101 -4,-3 -6,-6 -6,-10 0,-24 24,-89 72,-196 -17,-24 -31,-48 -43,-74 -141,-14 -211,-29 -211,-44l0 -199c0,-15 70,-30 211,-44 12,-27 27,-52 43,-74 -48,-107 -72,-172 -72,-196 0,-4 2,-7 6,-10 4,-2 20,-11 50,-28 29,-17 57,-33 84,-48 26,-15 41,-23 42,-23 8,0 29,22 65,66 36,44 61,76 74,96 19,-2 33,-3 43,-3 9,0 24,1 42,3 48,-67 92,-120 130,-159l8 -3c4,0 63,33 176,99 4,3 6,6 6,10 0,24 -24,89 -72,196 16,22 30,47 43,74 141,14 211,29 211,44zm0 -1452l0 199c0,15 -71,30 -211,44 -11,25 -26,50 -43,74 48,107 72,172 72,196 0,4 -2,7 -6,10 -116,67 -174,100 -176,100 -7,0 -29,-22 -65,-66 -36,-44 -60,-77 -74,-97 -19,2 -33,3 -42,3 -9,0 -24,-1 -43,-3 -13,20 -38,52 -74,97 -36,44 -58,66 -65,66 -2,0 -61,-33 -176,-100 -4,-3 -6,-6 -6,-10 0,-24 24,-89 72,-196 -17,-24 -31,-48 -43,-74 -141,-14 -211,-29 -211,-44l0 -199c0,-15 70,-30 211,-44 12,-28 27,-52 43,-74 -48,-107 -72,-172 -72,-196 0,-3 2,-7 6,-10 4,-2 20,-11 50,-28 29,-17 57,-33 84,-48 26,-15 41,-22 42,-22 8,0 29,22 65,66 36,44 61,76 74,96 19,-2 33,-3 43,-3 9,0 24,1 42,3 48,-67 92,-120 130,-159l8 -3c4,0 63,33 176,99 4,3 6,6 6,10 0,24 -24,89 -72,196 16,22 30,46 43,74 141,14 211,29 211,44z"/>
  </g>
 </g>
</svg>
